<?xml version="1.0" encoding="UTF-8" standalone="no"?>
<!-- Created with Inkscape (http://www.inkscape.org/) -->

<svg
   width="200"
   height="25"
   viewBox="0 0 52.916665 6.6145835"
   version="1.1"
   id="svg1"
   xmlns="http://www.w3.org/2000/svg"
   xmlns:svg="http://www.w3.org/2000/svg">
  <defs
     id="defs1" />
  <path
     id="text2"
     style="font-size:8.27211px;font-family:Cantarell;-inkscape-font-specification:'Cantarell, Normal';fill:#9c0510;stroke-width:0.155466"
     d="M 5.5753705,0.20928955 V 6.3226115 H 6.2373456 V 3.2447632 C 6.5417924,2.9733546 6.90848,2.8318685 7.2961957,2.8318685 c 0.6452238,0 1.0009724,0.3640168 1.0009724,1.0092407 V 6.3226115 H 8.9586265 V 3.7083008 c 0,-0.8851149 -0.5871428,-1.4557251 -1.4805298,-1.4557251 -0.4389103,0 -0.8725884,0.1442548 -1.2407511,0.4258138 V 0.20928955 Z M 44.429329,0.45733642 c -0.297795,0 -0.471289,0.17401017 -0.471289,0.47180583 0,0.29779575 0.173494,0.47128905 0.471289,0.47128905 0.297795,0 0.471806,-0.1734933 0.471806,-0.47128905 0,-0.29779566 -0.174011,-0.47180583 -0.471806,-0.47180583 z M 2.9615765,0.50746256 C 1.1830747,0.50746256 2.4999998e-7,1.7148133 2.4999998e-7,3.5181315 2.4999998e-7,5.2470008 1.133504,6.4052938 2.8292849,6.4052938 c 0.5542307,0 1.1330085,-0.1239111 1.6789672,-0.3638021 L 4.3511558,5.536613 C 3.9375507,5.702055 3.4248027,5.8011963 2.9863812,5.8011963 c -1.3731688,0 -2.28306471,-0.9759991 -2.28306471,-2.4401611 0,-1.3979852 0.83547791,-2.2499919 2.21691891,-2.2499919 0.4632376,0 0.9842308,0.099141 1.4226522,0.2645834 L 4.5413251,0.86299642 C 4.1194479,0.63964967 3.5240795,0.50746256 2.9615765,0.50746256 Z M 15.03009,1.0216431 a 0.78800201,0.54141414 0 0 0 -0.788065,0.541569 0.78800201,0.54141414 0 0 0 0.614432,0.5265828 v 0.179834 c -1.019372,0.1230108 -1.683618,0.9298244 -1.683618,2.100647 0,1.2325428 0.728108,2.0350179 1.861385,2.0350179 1.174638,0 1.968872,-0.8520647 1.968872,-2.1259684 0,-1.163834 -0.656828,-1.9364401 -1.684134,-2.0189982 V 2.0660238 A 0.78800201,0.54141414 0 0 0 15.818156,1.5632121 0.78800201,0.54141414 0 0 0 15.03009,1.0216431 Z m -0.0078,0.1240234 a 0.56645346,0.38919431 0 0 1 0.566374,0.3891236 0.56645346,0.38919431 0 0 1 -0.269751,0.3317627 V 1.7869711 H 14.856457 V 1.9068604 A 0.56645346,0.38919431 0 0 1 14.455965,1.5347901 0.56645346,0.38919431 0 0 1 15.022339,1.1456665 Z m 4.954736,1.1069092 c -0.457974,0 -0.907142,0.1605279 -1.285193,0.4423503 L 18.537886,2.335258 h -0.463537 v 3.9873535 h 0.661975 V 3.2142741 c 0.304561,-0.2426148 0.670877,-0.3824056 1.05885,-0.3824056 0.645224,0 1.000973,0.3640168 1.000973,1.0092407 v 2.4815023 h 0.661458 V 3.7083008 c 0,-0.8851149 -0.587144,-1.4557251 -1.48053,-1.4557251 z m 4.491716,0 c -1.174639,0 -1.960604,0.8437965 -1.960604,2.1177002 0,1.2325431 0.728106,2.0350179 1.861385,2.0350179 1.174638,0 1.968872,-0.8520647 1.968872,-2.1259684 0,-1.2325431 -0.736376,-2.0267497 -1.869653,-2.0267497 z m 4.87257,0 c -0.456311,0 -0.89973,0.1588498 -1.270723,0.4387329 L 27.918192,2.335258 h -0.46302 V 6.3226115 H 28.11663 V 3.2106568 c 0.296854,-0.2404604 0.654784,-0.3787883 1.034045,-0.3787883 0.636952,0 0.984436,0.3640168 0.984436,1.0092407 v 2.4815023 h 0.661975 V 3.7083008 c 0,-0.1605462 -0.02559,-0.3060852 -0.06201,-0.4444173 0.307743,-0.2738042 0.689917,-0.432015 1.096057,-0.432015 0.636952,0 0.984436,0.3640168 0.984436,1.0092407 v 2.4815023 h 0.661458 V 3.7083008 c 0,-0.8851149 -0.578879,-1.4557251 -1.463993,-1.4557251 -0.529238,0 -1.046097,0.2209582 -1.449007,0.6015137 C 30.316788,2.4738435 29.886998,2.2525757 29.341361,2.2525757 Z m 11.961027,0 c -0.457973,0 -0.907142,0.1605279 -1.285192,0.4423503 L 39.8632,2.335258 h -0.463021 v 3.9873535 h 0.661458 V 3.2142741 c 0.304562,-0.2426148 0.670877,-0.3824056 1.05885,-0.3824056 0.645225,0 1.000973,0.3640168 1.000973,1.0092407 v 2.4815023 h 0.661975 V 3.7083008 c 0,-0.8851149 -0.58766,-1.4557251 -1.481047,-1.4557251 z m 6.54327,0 c -1.182911,0 -1.976623,0.8768502 -1.976623,2.1921143 0,1.2325431 0.677977,1.9606038 1.819527,1.9606038 0.479782,0 0.976012,-0.1156622 1.306897,-0.3141927 L 48.846631,5.611027 c -0.330885,0.1571699 -0.694905,0.2480469 -1.000973,0.2480469 -0.82721,0 -1.298629,-0.5788397 -1.298629,-1.5466756 0,-0.9595639 0.463151,-1.4805298 1.290361,-1.4805298 0.314341,0 0.670088,0.074344 1.000972,0.2232422 L 48.995459,2.517159 C 48.631486,2.3434449 48.242719,2.2525757 47.845658,2.2525757 Z m 3.466455,0 c -0.521142,0 -1.08397,0.1404476 -1.514119,0.3803385 l 0.165364,0.4883423 c 0.413606,-0.1819862 0.827158,-0.2728515 1.215947,-0.2728515 0.711401,0 1.075386,0.2973813 1.075386,0.8847005 v 0.2676839 c -1.785674,0.01407 -2.564184,0.3862795 -2.564184,1.2381673 0,0.7114008 0.5293,1.1663371 1.348238,1.1663371 0.502229,0 0.936367,-0.1693282 1.254704,-0.4563029 l 0.160197,0.3736206 h 0.46302 v -2.589506 c 0,-0.9512918 -0.562268,-1.4805298 -1.604553,-1.4805298 z m -39.201741,0.041341 c -0.481669,0 -0.921915,0.2417848 -1.224215,0.6351033 l -0.07441,-0.5937622 h -0.54622 v 3.9873537 h 0.661975 V 3.4855754 c 0.258281,-0.3536948 0.659811,-0.5627564 1.10846,-0.5627564 0.15717,0 0.305863,0.024781 0.438216,0.074414 l 0.165365,-0.6123657 c -0.173715,-0.057905 -0.347181,-0.090951 -0.529167,-0.090951 z m 22.607405,0.041341 v 2.6143107 c 0,0.8851148 0.587679,1.4557251 1.439706,1.4557251 0.442354,0 0.886601,-0.1578834 1.254704,-0.4366659 l 0.151412,0.3539836 h 0.46302 V 2.335258 H 37.365161 V 5.4492798 C 37.072217,5.6883666 36.713415,5.826001 36.35592,5.826001 c -0.620407,0 -0.976168,-0.3640168 -0.976168,-1.0092407 V 2.335258 Z m 9.372555,0 v 3.9873538 h 0.661975 V 2.335258 Z M 24.37784,2.8318685 c 0.769305,0 1.298629,0.6284762 1.298629,1.5384074 0,0.8768427 -0.479729,1.4557251 -1.215947,1.4557251 -0.769306,0 -1.29036,-0.6202041 -1.29036,-1.5384074 0,-0.8851149 0.471461,-1.4557251 1.207678,-1.4557251 z m -9.433016,0.00362 v 0.1111043 h 0.285771 V 2.8453044 c 0.617961,0.087582 1.044866,0.6077014 1.103292,1.3482381 H 16.182475 V 4.464327 h 0.156579 c -0.03162,0.7821613 -0.458173,1.3060296 -1.108459,1.3570231 V 5.6761393 H 14.944824 V 5.8135986 C 14.323424,5.7302206 13.898968,5.2138698 13.841532,4.464327 h 0.09974 V 4.1935425 h -0.103353 c 0.03114,-0.7919336 0.452837,-1.3112794 1.106909,-1.3580566 z m 0.04547,0.5400187 v 0.6061619 a 0.36094278,0.36094278 0 0 0 -0.263544,0.3472656 0.36094278,0.36094278 0 0 0 0.361218,0.3607015 0.36094278,0.36094278 0 0 0 0.202572,-0.062012 l 0.513663,0.513147 0.07958,-0.079582 -0.511597,-0.5115967 A 0.36094278,0.36094278 0 0 0 15.448669,4.3289347 0.36094278,0.36094278 0 0 0 15.185636,3.9816691 V 3.3755046 Z m 37.264392,1.0821045 v 0.9673828 c -0.250097,0.2515981 -0.61144,0.4010091 -1.025777,0.4010091 -0.529414,0 -0.876432,-0.2643974 -0.876432,-0.6614583 0,-0.4907712 0.570358,-0.6958441 1.902209,-0.7069336 z" />
</svg>
