<?xml version="1.0" encoding="UTF-8" standalone="no"?>
<!-- Created with Inkscape (http://www.inkscape.org/) -->

<svg
   width="200"
   height="25"
   viewBox="0 0 52.916665 6.6145835"
   version="1.1"
   id="svg1"
   xmlns="http://www.w3.org/2000/svg"
   xmlns:svg="http://www.w3.org/2000/svg">
  <defs
     id="defs1" />
  <path
     id="text1"
     style="font-size:14.0781px;font-family:Cantarell;-inkscape-font-specification:'Cantarell, @wght=300';font-variation-settings:'wght' 300;fill:#9c0510;stroke-width:0.162265;fill-opacity:1"
     d="M 4.3341024 0.073897298 L 4.3341024 6.4543864 L 4.6710327 6.4543864 L 4.6710327 3.1579468 C 5.0288133 2.7748969 5.5136545 2.5517822 6.0265055 2.5517822 C 6.7862799 2.5517822 7.2176473 3.0011723 7.2176473 3.7868489 L 7.2176473 6.4543864 L 7.5633626 6.4543864 L 7.5633626 3.7434407 C 7.5633626 2.8196237 7.0107204 2.2412069 6.1128052 2.2412069 C 5.5800795 2.2412069 5.0733377 2.4604672 4.6710327 2.8354858 L 4.6710327 0.073897298 L 4.3341024 0.073897298 z M 44.300138 0.56585693 C 44.127464 0.56585693 44.015401 0.67843471 44.015401 0.85111084 C 44.015401 1.023787 44.127464 1.135848 44.300138 1.135848 C 44.472814 1.135848 44.584875 1.023787 44.584875 0.85111084 C 44.584875 0.67843471 44.472814 0.56585693 44.300138 0.56585693 z M 1.9425171 2.2412069 C 0.75968632 2.2412069 0 3.0957503 0 4.4426229 C 0 5.7463265 0.69093216 6.540686 1.813326 6.540686 C 2.2536502 6.540686 2.7114596 6.4197505 3.065446 6.2125407 L 2.9874145 5.970695 C 2.6161607 6.1606378 2.2275594 6.2642171 1.8908407 6.2642171 C 0.94975662 6.2642171 0.35398356 5.5303052 0.35398356 4.3733765 C 0.35398356 3.2164476 0.94136208 2.5517822 1.9342489 2.5517822 C 2.2968684 2.5517822 2.650545 2.638005 2.9786295 2.8106811 L 3.0737142 2.534729 C 2.7110949 2.3361517 2.3396718 2.2412069 1.9425171 2.2412069 z M 14.119035 2.2412069 C 12.979377 2.2412069 12.211141 3.1130835 12.211141 4.4167847 C 12.211141 5.694584 12.953236 6.540686 14.075627 6.540686 C 15.206652 6.540686 15.966467 5.6688099 15.966467 4.3651082 C 15.966467 3.0786763 15.232793 2.2412069 14.119035 2.2412069 z M 18.890837 2.2412069 C 18.343852 2.2412069 17.837063 2.4526137 17.456299 2.8034464 L 17.388603 2.3099365 L 17.129704 2.3099365 L 17.129704 6.4543864 L 17.474902 6.4543864 L 17.474902 3.0985189 C 17.79027 2.7669487 18.293452 2.5517822 18.813322 2.5517822 C 19.58173 2.5517822 20.013249 3.0011723 20.013249 3.7868489 L 20.013249 6.4543864 L 20.358964 6.4543864 L 20.358964 3.7434407 C 20.358964 2.8196237 19.814653 2.2412069 18.890837 2.2412069 z M 23.587707 2.2412069 C 22.448048 2.2412069 21.679814 3.1130808 21.679814 4.4167847 C 21.679814 5.694588 22.421909 6.540686 23.544299 6.540686 C 24.675328 6.540686 25.435657 5.6688119 25.435657 4.3651082 C 25.435657 3.0786725 24.701472 2.2412069 23.587707 2.2412069 z M 28.5781 2.2412069 C 28.05807 2.2412069 27.557628 2.4423883 27.162166 2.7874267 L 27.09292 2.3099365 L 26.834021 2.3099365 L 26.834021 6.4543864 L 27.179736 6.4543864 L 27.179736 3.0690633 C 27.540216 2.7445055 28.005081 2.5517822 28.483016 2.5517822 C 29.216891 2.5517822 29.648836 3.0011723 29.648836 3.7868489 L 29.648836 6.4543864 L 29.994035 6.4543864 L 29.994035 3.7434407 C 29.994035 3.5305273 29.961992 3.339689 29.908252 3.1677653 C 30.276741 2.7803678 30.78132 2.5517822 31.297314 2.5517822 C 32.031189 2.5517822 32.463135 3.0011723 32.463135 3.7868489 L 32.463135 6.4543864 L 32.80885 6.4543864 L 32.80885 3.7434407 C 32.80885 2.8023562 32.256145 2.2412069 31.384131 2.2412069 C 30.799614 2.2412069 30.234146 2.5036981 29.814718 2.942456 C 29.587335 2.4960554 29.154565 2.2412069 28.5781 2.2412069 z M 41.010933 2.2412069 C 40.46395 2.2412069 39.957156 2.4526137 39.576396 2.8034464 L 39.508183 2.3099365 L 39.249284 2.3099365 L 39.249284 6.4543864 L 39.594999 6.4543864 L 39.594999 3.0985189 C 39.910365 2.7669487 40.413031 2.5517822 40.932902 2.5517822 C 41.70131 2.5517822 42.132829 3.0011723 42.132829 3.7868489 L 42.132829 6.4543864 L 42.478544 6.4543864 L 42.478544 3.7434407 C 42.478544 2.8196237 41.934753 2.2412069 41.010933 2.2412069 z M 47.805867 2.2412069 C 46.623035 2.2412069 45.862834 3.0957503 45.862834 4.4426229 C 45.862834 5.7463265 46.553759 6.540686 47.67616 6.540686 C 48.116476 6.540686 48.573779 6.4197505 48.927763 6.2125407 L 48.850248 5.970695 C 48.478993 6.1606378 48.090396 6.2642171 47.753674 6.2642171 C 46.812591 6.2642171 46.216817 5.5303052 46.216817 4.3733765 C 46.216817 3.2164476 46.803679 2.5517822 47.796566 2.5517822 C 48.159185 2.5517822 48.513376 2.638005 48.841463 2.8106811 L 48.936548 2.534729 C 48.573931 2.3361517 48.20302 2.2412069 47.805867 2.2412069 z M 51.457324 2.2412069 C 50.973828 2.2412069 50.430401 2.3879163 49.981445 2.6210286 L 50.067745 2.8711426 C 50.482169 2.6725659 50.948483 2.5517822 51.371541 2.5517822 C 52.148584 2.5517822 52.562683 2.9402579 52.562683 3.7000325 L 52.562683 4.1341146 C 50.69304 4.1466446 49.842952 4.5429315 49.842952 5.4094889 C 49.842952 6.0915602 50.369793 6.540686 51.181372 6.540686 C 51.74736 6.540686 52.23504 6.3168588 52.569401 5.9262532 L 52.657768 6.4543864 L 52.916666 6.4543864 L 52.916666 3.6741943 C 52.916666 2.759012 52.381137 2.2412069 51.457324 2.2412069 z M 10.783838 2.2928833 C 10.271035 2.2928833 9.8177109 2.5403416 9.5322347 2.9646769 L 9.4888265 2.3099365 L 9.2035726 2.3099365 L 9.2035726 6.4543864 L 9.5492879 6.4543864 L 9.5492879 3.2969564 C 9.8293665 2.8678019 10.271446 2.6122436 10.749215 2.6122436 C 10.895988 2.6122436 11.06014 2.6384661 11.198283 2.6902751 L 11.293367 2.3879679 C 11.146592 2.327528 10.965147 2.2928833 10.783838 2.2928833 z M 34.371545 2.3099365 L 34.371545 5.0208821 C 34.371545 5.9619672 34.941002 6.5236328 35.795748 6.5236328 C 36.29952 6.5236328 36.803027 6.3175113 37.204964 5.9779297 L 37.280928 6.4543864 L 37.531559 6.4543864 L 37.531559 2.3099365 L 37.185844 2.3099365 L 37.185844 5.6952596 C 36.822818 6.0216943 36.345691 6.2213257 35.890832 6.2213257 C 35.165593 6.2213257 34.716744 5.7636669 34.716744 4.9779907 L 34.716744 2.3099365 L 34.371545 2.3099365 z M 44.118754 2.3099365 L 44.118754 6.4543864 L 44.464469 6.4543864 L 44.464469 2.3099365 L 44.118754 2.3099365 z M 23.527246 2.5517822 C 24.468329 2.5517822 25.089941 3.2857571 25.089941 4.4167847 C 25.089941 5.5305442 24.48563 6.2388957 23.587707 6.2388957 C 22.646625 6.2388957 22.033797 5.4871363 22.033797 4.3733765 C 22.033797 3.2855182 22.61206 2.5517822 23.527246 2.5517822 z M 14.019816 2.5528157 L 14.019816 2.8091309 L 14.157275 2.8091309 L 14.157275 2.5548828 C 14.450322 2.5714488 14.709799 2.6620794 14.925704 2.8148153 L 14.825452 2.9884481 L 14.944307 3.0571777 L 15.035258 2.9000814 C 15.218257 3.0592506 15.36303 3.2691627 15.463139 3.5212321 L 15.18512 3.6819458 L 15.253849 3.8008016 L 15.510681 3.6524902 C 15.574871 3.8544363 15.612289 4.0799485 15.619718 4.3253174 L 15.394926 4.3253174 L 15.394926 4.4627767 L 15.620235 4.4627767 C 15.616435 4.7110333 15.582116 4.9385952 15.521016 5.141805 L 15.253849 4.9872925 L 15.18512 5.106665 L 15.476058 5.2746134 C 15.376438 5.5370222 15.228799 5.7530093 15.040942 5.9133341 L 14.937073 5.7329834 L 14.818217 5.801713 L 14.930872 5.9975667 C 14.713259 6.1471816 14.451268 6.2305824 14.157275 6.2373454 L 14.157275 5.9789632 L 14.019816 5.9789632 L 14.019816 6.2352783 C 13.729386 6.2185283 13.472747 6.1280605 13.259139 5.9758626 L 13.359391 5.801713 L 13.240535 5.7329834 L 13.150102 5.889563 C 12.966301 5.7286361 12.821175 5.5165054 12.721187 5.2632446 L 12.991972 5.106665 L 12.923242 4.9872925 L 12.674162 5.1314697 C 12.610442 4.9298689 12.573465 4.7053036 12.566158 4.4627767 L 12.782682 4.4627767 L 12.782682 4.3253174 L 12.565124 4.3253174 C 12.569024 4.0801974 12.6027 3.853815 12.66331 3.6504232 L 12.923242 3.8008016 L 12.991972 3.6819458 L 12.708268 3.5181315 C 12.805188 3.2602224 12.948935 3.0445536 13.133048 2.8835449 L 13.233301 3.0571777 L 13.35164 2.9884481 L 13.242086 2.797762 C 13.458354 2.645529 13.720519 2.5596337 14.019816 2.5528157 z M 14.042037 3.4628377 L 14.042037 4.139799 A 0.26014298 0.26014298 0 0 0 13.828613 4.3904297 A 0.26014298 0.26014298 0 0 0 14.088546 4.6508789 A 0.26014298 0.26014298 0 0 0 14.258044 4.5873169 L 15.041976 5.3707316 L 15.086934 5.3257731 L 14.300936 4.5397746 A 0.26014298 0.26014298 0 0 0 14.348995 4.3904297 A 0.26014298 0.26014298 0 0 0 14.135571 4.139799 L 14.135571 3.4628377 L 14.042037 3.4628377 z M 52.562683 4.3842285 L 52.562683 5.6254964 C 52.214181 6.020785 51.784197 6.2383789 51.284725 6.2383789 C 50.619916 6.2383789 50.188668 5.8931079 50.188668 5.3578125 C 50.188668 4.6880562 50.910098 4.3946677 52.562683 4.3842285 z " />
</svg>
