<?xml version="1.0" encoding="UTF-8" standalone="no"?>
<svg
   viewBox="0 0 500 80"
   version="1.1"
   id="svg123"
   width="500"
   height="80"
   xmlns="http://www.w3.org/2000/svg"
   xmlns:svg="http://www.w3.org/2000/svg"
   xmlns:rdf="http://www.w3.org/1999/02/22-rdf-syntax-ns#"
   xmlns:cc="http://creativecommons.org/ns#"
   xmlns:dc="http://purl.org/dc/elements/1.1/">
  <defs
     id="defs127" />
  <title
     id="title85">Asset 3</title>
  <path
     d="m 19.946183,60.792044 c 3.907621,0 7.99021,-0.874841 11.839509,-2.566199 L 30.67756,54.66816 c -2.916135,1.166454 -6.532142,1.866326 -9.623245,1.866326 -9.681569,0 -16.0970656,-6.882078 -16.0970656,-17.205196 0,-9.856537 5.8905926,-15.863775 15.6304836,-15.863775 3.266071,0 6.940401,0.699873 10.031505,1.866327 l 1.399744,-3.616008 c -2.974457,-1.574713 -7.173692,-2.507876 -11.139635,-2.507876 -12.539381,0 -20.87952716243,8.515114 -20.87952716243,21.229463 0,12.189444 7.99020996243,20.354623 19.94636316243,20.354623 z M 39.83425,60.208817 h 4.840784 V 41.370584 h 21.637722 v 18.838233 h 4.840785 V 19.732862 H 66.312756 V 37.17135 H 44.675034 V 19.732862 H 39.83425 Z m 42.050701,0 h 4.840785 v -36.27672 h 7.99021 c 5.773944,0 9.156664,2.974458 9.156664,7.99021 0,4.957429 -3.03278,7.815242 -8.573437,7.815242 H 84.976055 v 4.082589 h 9.739891 c 8.398464,0 14.114094,-5.307366 14.114094,-12.772672 0,-7.115369 -5.24904,-11.314604 -13.530867,-11.314604 H 81.884951 Z m 23.504049,0 h 5.77395 L 99.964989,41.078971 h -5.540657 z m 89.64179,0 h 4.54918 V 24.923583 h -0.87484 l 23.97063,35.285234 h 5.36568 V 19.732862 h -4.54917 v 35.40188 h 0.93317 l -23.85399,-35.40188 h -5.54066 z m 60.0724,0.408258 c 11.66454,0 19.47978,-8.456791 19.47978,-21.17114 0,-12.131122 -7.58195,-20.237977 -18.89656,-20.237977 -11.48957,0 -19.12984,8.398469 -19.12984,20.93785 0,12.306089 7.40698,20.471267 18.54662,20.471267 z m 0.58322,-4.199234 c -8.51511,0 -14.17241,-6.765433 -14.17241,-16.971906 0,-9.564923 5.42401,-15.98042 13.58919,-15.98042 8.69008,0 14.52235,6.648788 14.52235,16.680293 0,9.739891 -5.59898,16.272033 -13.93913,16.272033 z m 27.41169,3.790976 h 4.60749 V 26.498296 h -0.99148 l 14.11409,27.411669 h 3.79098 L 318.5583,26.498296 h -0.69987 v 33.710521 h 4.60749 V 19.732862 h -4.78246 l -16.27203,31.844195 h 2.91613 L 288.05553,19.732862 h -4.95743 z m 63.97996,0.583227 c 9.38995,0 15.6888,-5.948916 15.6888,-14.930612 v -26.12857 h -4.72414 v 26.711797 c 0,6.357175 -3.79097,10.089827 -10.32311,10.089827 -6.88208,0 -10.84803,-4.082589 -10.84803,-11.081313 V 19.732862 H 332.0308 V 46.0364 c 0,8.923373 5.89059,14.755644 15.04726,14.755644 z m 25.25368,-0.583227 h 4.54917 V 24.923583 h -0.87484 l 23.97063,35.285234 h 5.36569 V 19.732862 h -4.54917 v 35.40188 h 0.93317 L 377.8724,19.732862 h -5.54066 z m 43.74204,0 h 4.84078 V 19.732862 h -4.84078 z m 33.30227,0.583227 c 3.90762,0 7.99021,-0.874841 11.83951,-2.566199 l -1.10813,-3.557685 c -2.91613,1.166454 -6.53214,1.866326 -9.62324,1.866326 -9.68157,0 -16.09707,-6.882078 -16.09707,-17.205196 0,-9.856537 5.89059,-15.863775 15.63048,-15.863775 3.26607,0 6.94041,0.699873 10.03151,1.866327 l 1.39974,-3.616008 c -2.97445,-1.574713 -7.17369,-2.507876 -11.13963,-2.507876 -12.53938,0 -20.87953,8.515114 -20.87953,21.229463 0,12.189444 7.99021,20.354623 19.94636,20.354623 z m 14.93064,-0.583227 h 5.07407 l 13.23926,-37.093238 h -0.52491 l 12.48106,37.093238 h 5.42401 L 485.76944,19.732862 h -6.29885 z m 7.64027,-12.014477 h 20.23798 v -4.199234 h -20.23798 z"
     id="text573"
     style="font-size:58.3227px;font-family:Cantarell;-inkscape-font-specification:'Cantarell, Normal';fill:#9c0510;stroke-width:0.854588"
     aria-label="CHR      NOMUNICA" />
  <path
     id="path285"
     style="fill:#9c0510;fill-opacity:1;stroke-width:0.474255"
     d="m 152.2935,4.146814 a 35.853204,35.853204 0 0 0 -3.85304,0.275219 l 1.44262,5.3834134 a 30.367044,30.367044 0 0 1 2.41042,-0.1723901 30.367044,30.367044 0 0 1 2.42859,0.1058525 L 156.16272,4.362552 A 35.853204,35.853204 0 0 0 152.2935,4.146814 Z m 14.46666,3.0596736 -1.43757,5.3652674 a 30.367044,30.367044 0 0 1 4.20591,2.435642 l 3.93676,-3.936748 a 35.853204,35.853204 0 0 0 -6.7051,-3.8641614 z m -28.92829,0.019155 a 35.853204,35.853204 0 0 0 -6.64858,3.9054954 l 3.90951,3.909527 a 30.367044,30.367044 0 0 1 4.1787,-2.44169 z m 43.39196,11.6035754 -3.93676,3.936748 a 30.367044,30.367044 0 0 1 2.43564,4.20491 l 5.36427,-1.437594 a 35.853204,35.853204 0 0 0 -3.86315,-6.704064 z m -57.79911,0.06048 a 35.853204,35.853204 0 0 0 -3.90551,6.648615 l 5.37332,1.439611 a 30.367044,30.367044 0 0 1 2.4417,-4.1787 z m 15.8982,12.6732 -1.08173,1.874115 10.45935,6.038698 a 3.6316824,3.6316824 0 0 0 -0.0383,0.524223 3.6316824,3.6316824 0 0 0 3.6313,3.631286 3.6316824,3.6316824 0 0 0 3.46292,-2.549558 h 21.95908 v -2.163448 h -21.95503 a 3.6316824,3.6316824 0 0 0 -3.46697,-2.549561 3.6316824,3.6316824 0 0 0 -2.64634,1.155318 z m 48.60799,4.567837 -5.37534,1.440618 a 30.367044,30.367044 0 0 1 0.10596,2.428581 30.367044,30.367044 0 0 1 -0.17239,2.410438 l 5.38239,1.442639 a 35.853204,35.853204 0 0 0 0.27523,-3.853077 35.853204,35.853204 0 0 0 -0.21572,-3.869199 z m -71.21532,0.01625 a 35.853204,35.853204 0 0 0 -0.27521,3.853069 35.853204,35.853204 0 0 0 0.27521,3.853077 l 5.38343,-1.442639 a 30.367044,30.367044 0 0 1 -0.17239,-2.410438 30.367044,30.367044 0 0 1 0.17239,-2.410437 z m 8.17694,16.875085 -5.37332,1.439608 a 35.853204,35.853204 0 0 0 3.90551,6.648617 l 3.90951,-3.909528 a 30.367044,30.367044 0 0 1 -2.4417,-4.178697 z m 54.80195,0 a 30.367044,30.367044 0 0 1 -2.44066,4.178697 l 3.9095,3.909528 a 35.853204,35.853204 0 0 0 3.90552,-6.648617 z m -44.60168,11.937264 -3.9095,3.909528 a 35.853204,35.853204 0 0 0 6.64857,3.905497 l 1.43963,-5.373335 a 30.367044,30.367044 0 0 1 -4.1787,-2.44169 z m 34.40246,0 a 30.367044,30.367044 0 0 1 -4.17972,2.44169 l 1.4396,5.373335 a 35.853204,35.853204 0 0 0 6.64961,-3.905497 z m -19.61316,5.235219 -1.44266,5.383414 a 35.853204,35.853204 0 0 0 3.85408,0.275219 35.853204,35.853204 0 0 0 3.8541,-0.275219 l -1.44264,-5.383414 a 30.367044,30.367044 0 0 1 -2.41146,0.172388 30.367044,30.367044 0 0 1 -2.41142,-0.172388 z" />
  <metadata
     id="metadata1788">
    <rdf:RDF>
      <cc:Work
         rdf:about="">
        <dc:title>Asset 3</dc:title>
      </cc:Work>
    </rdf:RDF>
  </metadata>
</svg>
