<?xml version="1.0" encoding="UTF-8" standalone="no"?>
<svg
   viewBox="0 0 500 80"
   version="1.1"
   id="svg123"
   sodipodi:docname="chronomunica.svg"
   width="500"
   height="80"
   inkscape:version="1.2.2 (b0a8486541, 2022-12-01)"
   xmlns:inkscape="http://www.inkscape.org/namespaces/inkscape"
   xmlns:sodipodi="http://sodipodi.sourceforge.net/DTD/sodipodi-0.dtd"
   xmlns="http://www.w3.org/2000/svg"
   xmlns:svg="http://www.w3.org/2000/svg"
   xmlns:rdf="http://www.w3.org/1999/02/22-rdf-syntax-ns#"
   xmlns:cc="http://creativecommons.org/ns#"
   xmlns:dc="http://purl.org/dc/elements/1.1/">
  <defs
     id="defs127" />
  <sodipodi:namedview
     id="namedview125"
     pagecolor="#ffffff"
     bordercolor="#000000"
     borderopacity="0.25"
     inkscape:showpageshadow="2"
     inkscape:pageopacity="0.0"
     inkscape:pagecheckerboard="0"
     inkscape:deskcolor="#d1d1d1"
     showgrid="false"
     inkscape:zoom="2.3617366"
     inkscape:cx="235.20827"
     inkscape:cy="105.21918"
     inkscape:window-width="1920"
     inkscape:window-height="1013"
     inkscape:window-x="0"
     inkscape:window-y="0"
     inkscape:window-maximized="1"
     inkscape:current-layer="svg123" />
  <title
     id="title85">Asset 3</title>
  <text
     xml:space="preserve"
     style="font-style:normal;font-variant:normal;font-weight:normal;font-stretch:normal;font-size:53.2085px;font-family:'URW Gothic';-inkscape-font-specification:'URW Gothic, Normal';font-variant-ligatures:normal;font-variant-caps:normal;font-variant-numeric:normal;font-variant-east-asian:normal;fill:#9c0510;fill-opacity:1;stroke-width:0.779651"
     x="-2.3414066"
     y="59.660542"
     id="text573"><tspan
       sodipodi:role="line"
       id="tspan571"
       x="-2.3414066"
       y="59.660542"
       style="font-style:normal;font-variant:normal;font-weight:normal;font-stretch:normal;font-size:53.2085px;font-family:'URW Gothic';-inkscape-font-specification:'URW Gothic, Normal';font-variant-ligatures:normal;font-variant-caps:normal;font-variant-numeric:normal;font-variant-east-asian:normal;fill:#9c0510;fill-opacity:1;stroke-width:0.779651">CHR      NOMUNICA</tspan></text>
  <path
     id="path285"
     style="fill:#9c0510;fill-opacity:1;stroke-width:0.474255"
     d="m 154.19155,4.146814 a 35.853204,35.853204 0 0 0 -3.85304,0.275219 l 1.44262,5.3834134 a 30.367044,30.367044 0 0 1 2.41042,-0.1723901 30.367044,30.367044 0 0 1 2.42859,0.1058525 l 1.44063,-5.3763568 a 35.853204,35.853204 0 0 0 -3.86922,-0.215738 z m 14.46666,3.0596736 -1.43757,5.3652674 a 30.367044,30.367044 0 0 1 4.20591,2.435642 l 3.93676,-3.936748 a 35.853204,35.853204 0 0 0 -6.7051,-3.8641614 z m -28.92829,0.019155 a 35.853204,35.853204 0 0 0 -6.64858,3.9054954 l 3.90951,3.909527 a 30.367044,30.367044 0 0 1 4.1787,-2.44169 z m 43.39196,11.6035754 -3.93676,3.936748 a 30.367044,30.367044 0 0 1 2.43564,4.20491 l 5.36427,-1.437594 a 35.853204,35.853204 0 0 0 -3.86315,-6.704064 z m -57.79911,0.06048 a 35.853204,35.853204 0 0 0 -3.90551,6.648615 l 5.37332,1.439611 a 30.367044,30.367044 0 0 1 2.4417,-4.1787 z m 15.8982,12.6732 -1.08173,1.874115 10.45935,6.038698 a 3.6316824,3.6316824 0 0 0 -0.0383,0.524223 3.6316824,3.6316824 0 0 0 3.6313,3.631286 3.6316824,3.6316824 0 0 0 3.46292,-2.549558 h 21.95908 v -2.163448 h -21.95503 a 3.6316824,3.6316824 0 0 0 -3.46697,-2.549561 3.6316824,3.6316824 0 0 0 -2.64634,1.155318 z m 48.60799,4.567837 -5.37534,1.440618 a 30.367044,30.367044 0 0 1 0.10596,2.428581 30.367044,30.367044 0 0 1 -0.17239,2.410438 l 5.38239,1.442639 a 35.853204,35.853204 0 0 0 0.27523,-3.853077 35.853204,35.853204 0 0 0 -0.21572,-3.869199 z m -71.21532,0.01625 a 35.853204,35.853204 0 0 0 -0.27521,3.853069 35.853204,35.853204 0 0 0 0.27521,3.853077 l 5.38343,-1.442639 a 30.367044,30.367044 0 0 1 -0.17239,-2.410438 30.367044,30.367044 0 0 1 0.17239,-2.410437 z m 8.17694,16.875085 -5.37332,1.439608 a 35.853204,35.853204 0 0 0 3.90551,6.648617 l 3.90951,-3.909528 a 30.367044,30.367044 0 0 1 -2.4417,-4.178697 z m 54.80195,0 a 30.367044,30.367044 0 0 1 -2.44066,4.178697 l 3.9095,3.909528 a 35.853204,35.853204 0 0 0 3.90552,-6.648617 z m -44.60168,11.937264 -3.9095,3.909528 a 35.853204,35.853204 0 0 0 6.64857,3.905497 l 1.43963,-5.373335 a 30.367044,30.367044 0 0 1 -4.1787,-2.44169 z m 34.40246,0 a 30.367044,30.367044 0 0 1 -4.17972,2.44169 l 1.4396,5.373335 a 35.853204,35.853204 0 0 0 6.64961,-3.905497 z m -19.61316,5.235219 -1.44266,5.383414 a 35.853204,35.853204 0 0 0 3.85408,0.275219 35.853204,35.853204 0 0 0 3.8541,-0.275219 l -1.44264,-5.383414 a 30.367044,30.367044 0 0 1 -2.41146,0.172388 30.367044,30.367044 0 0 1 -2.41142,-0.172388 z" />
  <metadata
     id="metadata1788">
    <rdf:RDF>
      <cc:Work
         rdf:about="">
        <dc:title>Asset 3</dc:title>
      </cc:Work>
    </rdf:RDF>
  </metadata>
</svg>
