<?xml version="1.0" encoding="UTF-8" standalone="no"?>
<!-- Created with Inkscape (http://www.inkscape.org/) -->

<svg
   width="200"
   height="25"
   viewBox="0 0 52.916665 6.6145835"
   version="1.1"
   id="svg1"
   xmlns="http://www.w3.org/2000/svg"
   xmlns:svg="http://www.w3.org/2000/svg">
  <defs
     id="defs1" />
  <g
     id="layer1">
    <path
       id="text1"
       style="font-size:14.0781px;font-family:Cantarell;-inkscape-font-specification:'Cantarell, @wght=300';font-variation-settings:'wght' 300;fill:#214478;stroke-width:0.162265"
       d="M 4.3342148,0.07390332 V 6.454478 H 4.6711019 V 3.1581802 c 0.357781,-0.3830503 0.8426204,-0.6062701 1.3554719,-0.6062701 0.7597751,0 1.1913072,0.4490479 1.1913072,1.2347253 V 6.454478 H 7.5633251 V 3.7432169 c 0,-0.923818 -0.5526327,-1.5022066 -1.4505488,-1.5022066 -0.5327262,0 -1.039369,0.2195253 -1.4416744,0.5945443 V 0.07390332 Z m 39.9659822,0.4921781 c -0.172674,0 -0.284911,0.1122363 -0.284911,0.2849126 0,0.17267638 0.112237,0.28491208 0.284911,0.28491208 0.172676,0 0.284913,-0.1122357 0.284913,-0.28491208 0,-0.1726763 -0.112237,-0.2849126 -0.284913,-0.2849126 z M 1.9427265,2.2410103 C 0.75989455,2.2410103 -6.666667e-8,3.0957882 -6.666667e-8,4.4426621 -6.666667e-8,5.746367 0.69071103,6.54068 1.813106,6.54068 c 0.4403246,0 0.8981694,-0.120803 1.2521561,-0.328013 L 2.9872971,5.970856 C 2.6160429,6.160799 2.2277853,6.264325 1.8910662,6.264325 c -0.94108497,0 -1.53706722,-0.733822 -1.53706722,-1.8907519 0,-1.15693 0.58728075,-1.821663 1.58016852,-1.821663 0.3626199,0 0.7164881,0.086248 1.044573,0.2589243 l 0.09508,-0.276355 C 2.7112009,2.3359019 2.3398837,2.2410103 1.9427286,2.2410103 Z m 12.1761135,0 c -1.139659,0 -1.907866,0.8719616 -1.907866,2.1756641 0,1.2778006 0.742373,2.1240056 1.864765,2.1240056 1.131027,0 1.890753,-0.871961 1.890753,-2.175664 0,-1.2864332 -0.733893,-2.1240057 -1.847652,-2.1240057 z m 4.772199,0 c -0.546985,0 -1.053938,0.2117023 -1.434703,0.5625354 L 17.38852,2.3100994 H 17.129595 V 6.454478 H 17.47504 V 3.0982818 c 0.315368,-0.3315705 0.818171,-0.5463717 1.338041,-0.5463717 0.768409,0 1.20018,0.4490479 1.20018,1.2347253 V 6.454478 h 0.345445 V 3.7432169 c 0,-0.923818 -0.543846,-1.5022066 -1.467663,-1.5022066 z m 4.696773,0 c -1.139661,0 -1.908183,0.8719589 -1.908183,2.1756641 0,1.2778046 0.742372,2.1240056 1.864763,2.1240056 1.13103,0 1.891073,-0.871959 1.891073,-2.175664 0,-1.286437 -0.733887,-2.1240057 -1.847653,-2.1240057 z m 4.990241,0 c -0.520031,0 -1.020227,0.2013336 -1.415689,0.5463724 l -0.0694,-0.4772833 H 26.834039 V 6.454478 h 0.345442 V 3.0688082 c 0.36048,-0.3245581 0.825561,-0.5168981 1.303496,-0.5168981 0.733876,0 1.165638,0.4490479 1.165638,1.2347253 V 6.454478 h 0.345442 V 3.7432169 c 0,-0.2129137 -0.03183,-0.403288 -0.08557,-0.5752119 0.36849,-0.3873979 0.873067,-0.6160949 1.389062,-0.6160949 0.733875,0 1.165636,0.4490479 1.165636,1.2347253 V 6.454478 h 0.345449 V 3.7432169 c 0,-0.9410855 -0.552549,-1.5022066 -1.424564,-1.5022066 -0.584517,0 -1.149967,0.262588 -1.569396,0.7013464 C 29.587291,2.4959556 29.154512,2.2410103 28.578047,2.2410103 Z m 12.432817,0 c -0.546984,0 -1.05394,0.2117023 -1.434701,0.5625354 l -0.06783,-0.4934463 h -0.25892 V 6.454478 h 0.345442 V 3.0982818 c 0.315366,-0.3315705 0.818171,-0.5463717 1.338042,-0.5463717 0.768409,0 1.200183,0.4490479 1.200183,1.2347253 V 6.454478 h 0.345446 V 3.7432169 c 0,-0.923818 -0.543845,-1.5022066 -1.467666,-1.5022066 z m 6.794794,0 c -1.182834,0 -1.942726,0.8547779 -1.942726,2.2016518 0,1.3037049 0.690706,2.0980179 1.813108,2.0980179 0.440317,0 0.897848,-0.120803 1.251832,-0.328013 l -0.07764,-0.241811 c -0.371255,0.189943 -0.759829,0.293469 -1.096551,0.293469 -0.941084,0 -1.53675,-0.733822 -1.53675,-1.8907519 0,-1.15693 0.586964,-1.821663 1.579852,-1.821663 0.36262,0 0.716801,0.086248 1.044888,0.2589243 l 0.09476,-0.276355 C 48.57382,2.3359019 48.202817,2.2410103 47.805664,2.2410103 Z m 3.651885,0 c -0.483497,0 -1.027264,0.1468756 -1.47622,0.3799882 l 0.08621,0.2503679 c 0.414425,-0.1985769 0.880756,-0.3194563 1.303815,-0.3194563 0.777044,0 1.191302,0.38843 1.191302,1.1482054 v 0.434182 c -1.869645,0.01253 -2.719498,0.4087322 -2.719498,1.2752905 0,0.682072 0.526782,1.131092 1.338362,1.131092 0.565989,0 1.053749,-0.223587 1.38811,-0.614193 l 0.08811,0.527991 h 0.258927 V 3.6741279 c 0,-0.9151832 -0.53529,-1.4331176 -1.459104,-1.4331176 z m -40.673671,0.051975 c -0.512803,0 -0.9660461,0.2472205 -1.2515226,0.6715562 L 9.4886224,2.3101001 H 9.2037102 V 6.454479 H 9.5491546 V 3.2969925 C 9.8292335,2.8678376 10.271566,2.6124426 10.749335,2.6124426 c 0.146773,0 0.310618,0.025838 0.448761,0.077647 l 0.09508,-0.3023427 C 11.1464,2.3273069 10.965192,2.2929859 10.783883,2.2929859 Z m 23.587494,0.017117 V 5.021045 c 0,0.941086 0.569816,1.502523 1.424563,1.502523 0.503773,0 1.007092,-0.206155 1.409029,-0.545737 l 0.07606,0.47665 H 37.53139 V 2.3101024 H 37.185948 V 5.695454 c -0.363026,0.326435 -0.840083,0.525772 -1.294942,0.525772 -0.72524,0 -1.17419,-0.457604 -1.17419,-1.243281 V 2.3101024 Z m 9.747545,0 V 6.454481 h 0.34545 V 2.3101024 Z M 23.527282,2.551913 c 0.941084,0 1.562735,0.7337356 1.562735,1.8647643 0,1.1137607 -0.604282,1.8219797 -1.502205,1.8219797 -0.941083,0 -1.554181,-0.75132 -1.554181,-1.865081 0,-1.0878593 0.578464,-1.821663 1.493651,-1.821663 z m -9.507321,9.2e-4 v 0.2563891 h 0.137544 V 2.555079 c 0.293047,0.016566 0.552312,0.1068224 0.768217,0.2595584 l -0.100143,0.1736729 0.118846,0.068773 0.09065,-0.1568759 c 0.182999,0.1591694 0.328051,0.3690959 0.42816,0.6211655 l -0.277939,0.1603624 0.06877,0.1188449 0.256389,-0.1480021 c 0.06419,0.2019463 0.101591,0.4274549 0.10902,0.672824 h -0.224696 v 0.137544 h 0.22533 c -0.0038,0.2482569 -0.03778,0.4756359 -0.09888,0.6788459 l -0.267164,-0.154341 -0.06877,0.119162 0.290933,0.167968 c -0.09962,0.262409 -0.247592,0.47827 -0.435449,0.638595 l -0.10395,-0.180011 -0.118847,0.06878 0.112824,0.195858 C 14.713193,6.147418 14.451513,6.230632 14.15752,6.237395 V 5.979099 H 14.019975 V 6.235171 C 13.729545,6.218421 13.472973,6.12781 13.259365,5.975612 L 13.359508,5.801939 13.240663,5.733159 13.150333,5.88972 C 12.966532,5.728793 12.821203,5.516427 12.721215,5.263166 l 0.270968,-0.156559 -0.06878,-0.119162 -0.2491,0.143883 C 12.610583,4.929727 12.57354,4.705468 12.566233,4.4629408 h 0.216464 V 4.3254012 H 12.56529 c 0.0039,-0.2451202 0.03764,-0.4716503 0.09825,-0.6750423 l 0.259875,0.1502205 0.06878,-0.118845 -0.283962,-0.1638488 c 0.09692,-0.2579094 0.240559,-0.4731504 0.424673,-0.6341592 l 0.100144,0.173356 0.118845,-0.068772 -0.109654,-0.1904695 C 13.458509,2.6456077 13.720663,2.5596782 14.01996,2.5528602 Z m 0.02219,0.9101976 V 4.1399747 A 0.26014298,0.26014298 0 0 0 13.828546,4.3906589 0.26014298,0.26014298 0 0 0 14.088738,4.650851 0.26014298,0.26014298 0 0 0 14.25829,4.587465 l 0.78343,0.783429 0.04532,-0.04533 -0.785968,-0.7856456 A 0.26014298,0.26014298 0 0 0 14.348926,4.3906461 0.26014298,0.26014298 0 0 0 14.135321,4.1399617 V 3.4630583 Z m 38.520505,0.920973 V 5.625384 c -0.348502,0.395289 -0.77835,0.613243 -1.277823,0.613243 -0.664809,0 -1.096232,-0.345428 -1.096232,-0.880724 0,-0.669757 0.721468,-0.9634602 2.374055,-0.9738994 z" />
  </g>
</svg>
